<svg xmlns="http://www.w3.org/2000/svg" viewBox="0 0 60 83.07"><defs><style>.cls-1{fill:#0175c9;}.cls-2{fill:#01579b;}</style></defs><title>Recurso 1</title><g id="Capa_2" data-name="Capa 2"><g id="Capa_1-2" data-name="Capa 1"><ellipse class="cls-1" cx="30" cy="11.26" rx="30" ry="11.26"/><path class="cls-2" d="M0,31.11v-15S.09,27.23,30,27.23,60,16.06,60,16.06V31.29S59.81,43.2,29.91,43.2,0,31.11,0,31.11Z"/><path class="cls-2" d="M0,51.32v-15S.09,47.44,30,47.44,60,36.28,60,36.28V51.51s-.19,11.91-30.09,11.91S0,51.32,0,51.32Z"/><path class="cls-2" d="M0,71v-15S.09,67.11,30,67.11,60,55.94,60,55.94V71.17s-.19,11.91-30.09,11.91S0,71,0,71Z"/></g></g></svg>