<?xml version="1.0" standalone="no"?>
<!DOCTYPE svg PUBLIC "-//W3C//DTD SVG 20010904//EN"
 "http://www.w3.org/TR/2001/REC-SVG-20010904/DTD/svg10.dtd">
<svg version="1.0" xmlns="http://www.w3.org/2000/svg"
 width="2480.000000pt" height="526.000000pt" viewBox="0 0 2480.000000 526.000000"
 preserveAspectRatio="xMidYMid meet">
<metadata>
Created by potrace 1.13, written by Peter Selinger 2001-2015
</metadata>
<g transform="translate(0.000000,526.000000) scale(0.100000,-0.100000)"
fill="#000000" stroke="none">
<path d="M0 3431 c0 -1169 4 -1864 10 -1946 35 -432 178 -764 439 -1026 250
-249 582 -396 991 -439 62 -6 4157 -10 11728 -10 l11632 0 0 230 0 230 -11127
2 -11128 3 -108 23 c-558 119 -915 482 -1023 1042 -18 90 -19 197 -22 1903
l-3 1807 -694 0 -695 0 0 -1819z"/>
<path d="M1670 3493 c0 -1891 -1 -1852 51 -2027 78 -261 258 -479 497 -600 83
-42 223 -85 329 -101 86 -13 1454 -15 11176 -15 l11077 0 0 225 0 225 -10952
0 c-9764 0 -10960 2 -11017 15 -185 44 -350 182 -441 370 -82 168 -75 -11 -78
1933 l-2 1732 -320 0 -320 0 0 -1757z"/>
<path d="M7207 4544 c-220 -53 -394 -231 -506 -519 -80 -205 -119 -424 -128
-730 -15 -501 66 -919 228 -1185 162 -265 419 -383 706 -324 73 15 184 62 198
84 3 5 9 10 13 10 4 0 55 -63 112 -140 l104 -140 64 62 c35 35 90 93 122 129
l59 65 -116 152 -115 151 35 58 c120 198 177 491 177 908 0 436 -58 761 -180
1010 -142 289 -343 427 -619 424 -53 0 -122 -7 -154 -15z m219 -505 c66 -17
136 -85 179 -173 72 -150 105 -373 105 -714 0 -122 -5 -266 -10 -320 -11 -96
-38 -249 -47 -265 -3 -4 -52 55 -111 133 l-105 141 -119 -118 c-65 -65 -118
-121 -118 -125 0 -5 51 -77 114 -162 63 -85 112 -157 109 -160 -10 -10 -95 -7
-134 4 -115 32 -212 205 -249 445 -21 134 -29 381 -20 580 23 454 107 679 274
731 52 16 76 17 132 3z"/>
<path d="M21631 4545 c-208 -59 -370 -259 -425 -526 -33 -163 -30 -354 9 -517
24 -96 103 -253 180 -354 36 -48 124 -151 195 -229 179 -196 223 -286 206
-423 -11 -83 -58 -154 -126 -189 -50 -26 -63 -28 -135 -25 -68 4 -90 9 -144
38 -36 19 -88 57 -118 83 l-53 49 0 -280 0 -281 26 -20 c40 -32 122 -69 194
-87 86 -23 254 -23 339 -1 132 35 260 126 337 241 166 244 191 695 53 967 -40
80 -129 195 -264 339 -195 209 -245 286 -264 408 -17 106 5 195 64 261 82 91
179 93 348 8 l107 -54 -2 241 -3 240 -65 38 c-104 61 -170 80 -295 84 -78 3
-126 -1 -164 -11z"/>
<path d="M23060 4546 c-204 -56 -357 -236 -422 -493 -20 -76 -23 -114 -22
-278 0 -164 3 -201 22 -270 50 -183 158 -351 373 -582 167 -179 208 -253 208
-383 1 -163 -90 -260 -244 -260 -99 0 -192 43 -297 138 l-38 34 0 -280 0 -281
28 -19 c48 -35 127 -70 193 -88 86 -23 253 -23 339 -1 222 58 378 227 447 485
24 88 27 115 27 287 1 222 -13 301 -75 423 -50 100 -108 176 -267 349 -218
237 -260 306 -269 442 -12 174 77 300 215 301 53 0 148 -31 228 -76 33 -19 64
-34 67 -34 4 0 7 107 7 238 l0 238 -87 46 c-49 26 -116 54 -149 62 -73 19
-219 20 -284 2z"/>
<path d="M3430 3165 l0 -1365 215 0 215 0 0 565 0 565 95 0 c105 0 220 20 292
51 168 72 294 233 350 448 31 118 43 369 24 503 -25 168 -102 340 -192 425
-88 83 -233 142 -394 162 -49 6 -206 11 -347 11 l-258 0 0 -1365z m586 930
c108 -32 167 -119 187 -274 8 -68 8 -113 0 -178 -25 -196 -110 -290 -270 -301
l-73 -5 0 380 c0 209 3 383 7 386 11 12 98 7 149 -8z"/>
<path d="M5241 4213 c-34 -175 -153 -789 -265 -1365 l-202 -1048 223 0 223 0
5 23 c6 27 65 433 65 447 0 6 79 10 230 10 l229 0 6 -32 c3 -18 21 -125 38
-238 l33 -205 222 -3 c207 -2 222 -1 222 15 0 10 -112 623 -248 1363 l-248
1345 -236 3 -236 2 -61 -317z m319 -563 c26 -280 92 -807 116 -922 l6 -28
-154 0 -153 0 36 288 c20 158 54 437 75 621 25 216 41 324 46 305 3 -16 16
-135 28 -264z"/>
<path d="M8633 3488 c3 -697 9 -1070 16 -1123 26 -184 88 -322 191 -426 121
-121 265 -171 495 -172 170 0 259 17 371 73 150 74 273 240 310 419 29 140 33
327 34 1299 l0 972 -225 0 -224 0 -4 -1022 c-3 -953 -4 -1028 -21 -1093 -33
-127 -116 -183 -257 -173 -127 9 -187 69 -216 215 -14 67 -17 220 -20 1076
l-4 997 -226 0 -225 0 5 -1042z"/>
<path d="M10600 3165 l0 -1365 475 0 475 0 0 265 0 265 -260 0 -260 0 0 320 0
320 235 0 235 0 0 250 0 250 -235 0 -235 0 2 278 3 277 258 3 257 2 0 250 0
250 -475 0 -475 0 0 -1365z"/>
<path d="M11930 4280 l0 -250 170 0 170 0 0 -1115 0 -1115 230 0 230 0 0 1115
0 1115 170 0 170 0 0 250 0 250 -570 0 -570 0 0 -250z"/>
<path d="M13500 3165 l0 -1365 475 0 475 0 0 265 0 265 -255 0 -255 0 0 320 0
320 235 0 235 0 0 250 0 250 -235 0 -235 0 0 280 0 280 255 0 255 0 0 250 0
250 -475 0 -475 0 0 -1365z"/>
<path d="M14774 4463 c13 -38 121 -341 240 -676 l216 -607 -254 -668 c-139
-367 -256 -677 -260 -689 l-7 -23 255 0 c234 0 255 1 260 18 115 398 181 662
221 887 7 37 10 30 35 -90 15 -71 35 -157 44 -190 18 -71 193 -615 199 -621 2
-3 112 -3 244 -2 l240 3 -255 687 -255 687 237 668 c130 367 236 671 236 676
0 4 -103 7 -230 7 l-229 0 -20 -67 c-143 -485 -184 -630 -201 -720 -11 -59
-22 -108 -24 -110 -1 -2 -9 30 -16 69 -21 121 -65 290 -148 563 l-78 260 -237
3 -236 2 23 -67z"/>
<path d="M16510 3166 l0 -1366 220 0 220 0 0 565 0 565 98 0 c198 1 338 54
457 174 121 123 183 277 206 513 13 129 1 311 -27 423 -46 182 -150 325 -293
399 -141 73 -201 83 -563 88 l-318 5 0 -1366z m589 928 c72 -21 134 -79 162
-152 27 -72 37 -252 19 -344 -32 -167 -130 -258 -277 -258 l-53 0 0 385 0 385
48 0 c27 0 72 -7 101 -16z"/>
<path d="M18160 3165 l0 -1365 220 0 220 0 2 557 3 556 181 -554 180 -554 237
-3 c130 -1 237 0 237 2 0 3 -97 282 -216 621 -119 339 -214 617 -212 618 85
43 114 63 168 117 109 108 161 245 182 473 20 217 -9 428 -78 573 -64 136
-164 221 -321 273 -119 40 -236 51 -543 51 l-260 0 0 -1365z m647 910 c99 -53
137 -148 137 -340 1 -256 -86 -381 -271 -393 l-73 -5 0 388 0 388 78 -5 c61
-3 89 -11 129 -33z"/>
<path d="M19830 3165 l0 -1365 475 0 475 0 0 265 0 265 -260 0 -260 0 0 320 0
320 235 0 235 0 0 250 0 250 -235 0 -235 0 0 280 0 280 260 0 260 0 0 250 0
250 -475 0 -475 0 0 -1365z"/>
<path d="M24100 1885 c0 -118 1 -125 20 -125 18 0 20 8 22 98 l3 97 24 -97
c24 -93 26 -98 51 -98 25 0 27 5 51 98 l24 97 3 -97 c2 -90 4 -98 22 -98 19 0
20 7 20 125 l0 125 -34 0 -33 0 -24 -90 c-12 -49 -26 -90 -31 -90 -4 0 -8 5
-8 12 0 6 -9 47 -21 90 -21 78 -21 78 -55 78 l-34 0 0 -125z"/>
<path d="M24500 1886 l0 -126 25 0 c23 0 25 3 25 50 0 49 1 50 29 50 46 0 61
-10 61 -40 0 -43 10 -60 35 -60 21 0 22 3 17 48 -2 26 -9 52 -14 59 -7 8 -5
18 6 28 21 22 20 58 -3 86 -17 21 -30 24 -100 27 l-81 4 0 -126z"/>
</g>
</svg>
