<svg xmlns="http://www.w3.org/2000/svg" viewBox="0 0 941.1 199.63"><defs><style>.cls-1,.cls-2{fill:#00338e;}.cls-1{fill-rule:evenodd;}</style></defs><title>Recurso 1</title><g id="Capa_2" data-name="Capa 2"><g id="Layer_1" data-name="Layer 1"><path class="cls-1" d="M132.94,68.08c.23,0,.57,0,1,.07s.82.08,1,.08q6.2,0,9.46-3.59c2.17-2.37,3.25-5.8,3.25-10.28q0-7-3.08-10.28c-2-2.19-5.26-3.31-9.62-3.31-.23,0-.57,0-1,.06s-.8.07-1,.07V68.08Zm-18.87,55.34V25.69h20.27q16.14,0,24,7t7.84,21.38q0,13.75-7.56,21.32T137.35,83c-1.14,0-2,0-2.63,0s-1.19-.07-1.71-.11l-.07,40.56Zm75.29-32.33h13c-1.35-6.84-2.53-14-3.61-21.46s-2-15.35-2.81-23.65q-1.48,11-3.13,22.26t-3.45,22.85Zm-26,32.33,22.76-97.73h20.43l21.69,97.73H208.71l-3.27-17.14H185.81l-3,17.14ZM269.42,86l9.16,10.1a47.81,47.81,0,0,0,2-9.21,98.12,98.12,0,0,0,.64-12.15c0-10.51-1.26-18.47-3.77-23.79s-6.24-8-11.15-8q-7.64,0-11.31,8.21t-3.68,25.27q0,14.64,3.77,22.32c2.54,5.1,6.19,7.66,11,7.66.41,0,.84,0,1.35-.07s1.05-.11,1.67-.2L258.84,94.77,269.42,86Zm32.06,35.33-10.58,9.19-9.18-10.12a22.66,22.66,0,0,1-6.86,3,34.93,34.93,0,0,1-8.59,1Q250,124.36,241,110.9t-9-37.82q0-22.62,9.16-35.65t25.11-13q16.42,0,25.41,13.41t9,38a80.09,80.09,0,0,1-2.29,20.59,34.46,34.46,0,0,1-7,14l10.05,11Zm71.73-95.65V87.07a133.5,133.5,0,0,1-.66,16,25.58,25.58,0,0,1-2.22,7.79A22.71,22.71,0,0,1,360,121.25q-6.72,3.4-17.3,3.39t-17.36-3.39a22.16,22.16,0,0,1-10.28-10.42,25.17,25.17,0,0,1-2.29-7.88,132.39,132.39,0,0,1-.66-15.88V25.69h19.49V88.62c0,8,.82,13.14,2.44,15.42s4.5,3.45,8.66,3.45,7.15-1.16,8.73-3.52,2.38-7.45,2.38-15.36V25.69ZM388,123.42V25.69H429.1V43.76H406.87V63.5H427V81.44H406.87v22.9H429.1v19.08Zm63.45,0V43.76H436.52V25.69H486V43.76H471.05v79.66Zm44.19,0V25.69h41.11V43.76H514.51V63.5h20.15V81.44H514.51v22.9h22.23v19.08Zm86.9,0-7.71-19.88c-.75-2.05-1.46-4.3-2.1-6.72s-1.21-5-1.71-7.68c-.48,2.72-1,5.3-1.6,7.73s-1.18,4.66-1.8,6.67l-6.7,19.88H538.68l22.62-49.47L540.7,25.69h20.47l7.38,20.54c.39,1.12.85,2.63,1.33,4.51S570.93,55,571.57,58c.52-2.53,1.07-4.82,1.6-6.83a45.89,45.89,0,0,1,1.6-5L582,25.69h20.15L581.6,73.95l22.1,49.47Zm44.1-55.34c.23,0,.57,0,1,.06s.82.08,1.05.08q6.21,0,9.46-3.59t3.25-10.28q0-7-3.08-10.28c-2-2.19-5.26-3.31-9.62-3.31-.23,0-.57,0-1.05.06s-.8.07-1,.07V68.08Zm-18.88,55.34V25.69H628q16.15,0,24,7t7.83,21.38q0,13.75-7.56,21.32C647.23,80.46,640.17,83,631,83c-1.14,0-2,0-2.63,0s-1.19-.07-1.71-.11l-.07,40.56ZM689,68.08c.23,0,.59,0,1.1.06s.89.08,1.12.08c4.23,0,7.43-1.19,9.56-3.55S704,58.82,704,54.21s-1-8.09-2.94-10.24-5.1-3.22-9.44-3.22c-.66,0-1.19,0-1.53,0s-.68,0-1,.09L689,68.08Zm-18.87,55.34V25.69h20.29q16.73,0,24.24,6.56t7.54,21q0,10.46-3.84,16.77a20.49,20.49,0,0,1-11.63,8.86l18.76,44.58H704.94L689,83v40.42Zm62.93,0V25.69h41.11V43.76H751.94V63.5H772.1V81.44H751.94v22.9h22.24v19.08Zm51.27-3.4V99.72a30,30,0,0,0,7.23,4.83,17.28,17.28,0,0,0,7.17,1.6,11.09,11.09,0,0,0,7.8-2.6,9.18,9.18,0,0,0,2.85-7.11q0-5.55-7.7-12c-1.44-1.21-2.51-2.15-3.22-2.81q-9-8.06-12.32-14.44a30.84,30.84,0,0,1-3.33-14.48q0-12.65,7.13-20.46t18.64-7.79a28.48,28.48,0,0,1,8,1.16A40.51,40.51,0,0,1,825,29.23V46.48a70.52,70.52,0,0,0-8-3.4,16.74,16.74,0,0,0-5.05-.94,9.4,9.4,0,0,0-6.9,2.65,9.28,9.28,0,0,0-2.67,6.92,13,13,0,0,0,2,7c1.35,2.17,4.45,5.37,9.37,9.6q9.84,8.47,12.66,14a29.91,29.91,0,0,1,2.81,13.51q0,13.34-7.54,21.06t-20.52,7.73a35,35,0,0,1-9.14-1.14,26.86,26.86,0,0,1-7.73-3.47ZM837,120V99.72a30,30,0,0,0,7.23,4.83,17.28,17.28,0,0,0,7.17,1.6,11.07,11.07,0,0,0,7.79-2.6A9.17,9.17,0,0,0,862,96.43q0-5.55-7.7-12c-1.44-1.21-2.51-2.15-3.22-2.81q-9-8.06-12.32-14.44a30.84,30.84,0,0,1-3.34-14.48q0-12.65,7.13-20.46t18.65-7.79a28.49,28.49,0,0,1,8,1.16,40.72,40.72,0,0,1,8.41,3.66V46.48a70.44,70.44,0,0,0-8-3.4,16.75,16.75,0,0,0-5.05-.94,9.4,9.4,0,0,0-6.9,2.65A9.28,9.28,0,0,0,855,51.72a13,13,0,0,0,2,7c1.35,2.17,4.46,5.37,9.37,9.6q9.83,8.47,12.66,14a29.91,29.91,0,0,1,2.81,13.51q0,13.34-7.54,21.06t-20.52,7.73a35,35,0,0,1-9.14-1.14A26.86,26.86,0,0,1,837,120Zm57.48,6.19V110.56h4.73L902,121.23l2.81-10.68h4.74v15.65h-2.93V113.89l-3.11,12.32h-3l-3.09-12.32v12.32Zm18.23,0v-3h3v3Zm6.1,0V110.56h6.65a11.36,11.36,0,0,1,3.64.43,3.58,3.58,0,0,1,1.82,1.49,4.53,4.53,0,0,1,.68,2.47,4.18,4.18,0,0,1-1,2.91,4.94,4.94,0,0,1-3.09,1.45,7.26,7.26,0,0,1,1.69,1.32,17.31,17.31,0,0,1,1.8,2.54l1.91,3.05h-3.77l-2.29-3.41a23.65,23.65,0,0,0-1.67-2.3,2.41,2.41,0,0,0-1-.65,5.18,5.18,0,0,0-1.59-.17h-.64v6.53Zm3.16-9h2.34a12.41,12.41,0,0,0,2.84-.19,1.72,1.72,0,0,0,.89-.66,2.09,2.09,0,0,0,.32-1.17,1.89,1.89,0,0,0-.42-1.27,2,2,0,0,0-1.19-.62c-.26,0-1-.05-2.31-.05h-2.46v4Zm12.6,9v-3h3v3Z"/><path class="cls-2" d="M52.28,145.93V0H0V162.37a37.26,37.26,0,0,0,37.26,37.26H941.1V179.47H85.81A33.53,33.53,0,0,1,52.28,145.93Z"/><path class="cls-2" d="M94.68,146a7.45,7.45,0,0,1-7.45-7.45V0H64V137.36A29.81,29.81,0,0,0,93.8,167.16H941.1V146Z"/></g></g></svg>