<svg xmlns="http://www.w3.org/2000/svg" viewBox="0 0 786.4 1088.83"><defs><style>.cls-1{fill:#0175c9;}.cls-2{fill:#01579b;}</style></defs><title>Recurso 1</title><g id="Capa_2" data-name="Capa 2"><g id="Capa_1-2" data-name="Capa 1"><ellipse class="cls-1" cx="393.2" cy="147.61" rx="393.2" ry="147.61"/><path class="cls-2" d="M0,407.72V210.52S1.22,356.91,393.2,356.91,786.4,210.52,786.4,210.52V410.15S784,566.2,392,566.2,0,407.72,0,407.72Z"/><path class="cls-2" d="M0,672.66V475.47S1.22,621.85,393.2,621.85,786.4,475.47,786.4,475.47V675.09S784,831.16,392,831.16,0,672.66,0,672.66Z"/><path class="cls-2" d="M0,930.37V733.14S1.22,879.55,393.2,879.55,786.4,733.14,786.4,733.14V932.78s-2.44,156-394.41,156S0,930.37,0,930.37Z"/></g></g></svg>